<?xml version="1.0" encoding="UTF-8"?>
<svg xmlns="http://www.w3.org/2000/svg" xmlns:xlink="http://www.w3.org/1999/xlink" width="24px" height="24px" viewBox="0 0 24 24" version="1.1">
<g id="surface1">
<path style=" stroke:none;fill-rule:nonzero;fill:rgb(0%,0%,0%);fill-opacity:1;" d="M 17.640625 21.75 L 6.390625 21.75 C 5.121094 21.75 3.925781 21.164062 3.144531 20.164062 C 2.367188 19.160156 2.09375 17.855469 2.40625 16.628906 L 4.6875 7.320312 C 4.773438 6.976562 5.085938 6.738281 5.4375 6.75 L 18 6.75 C 18.339844 6.734375 18.648438 6.949219 18.75 7.273438 L 21.585938 16.394531 C 21.976562 17.652344 21.746094 19.019531 20.960938 20.078125 C 20.191406 21.140625 18.953125 21.761719 17.640625 21.75 Z M 6 8.25 L 3.832031 16.988281 C 3.636719 17.769531 3.8125 18.597656 4.304688 19.234375 C 4.796875 19.871094 5.554688 20.246094 6.359375 20.25 L 17.609375 20.25 C 18.4375 20.25 19.214844 19.855469 19.703125 19.183594 C 20.203125 18.511719 20.351562 17.636719 20.101562 16.835938 L 17.460938 8.25 Z M 6 8.25 "/>
<path style=" stroke:none;fill-rule:nonzero;fill:rgb(0%,0%,0%);fill-opacity:1;" d="M 15 12.75 C 14.585938 12.75 14.25 12.414062 14.25 12 L 14.25 6 C 14.25 4.757812 13.242188 3.75 12 3.75 C 10.757812 3.75 9.75 4.757812 9.75 6 L 9.75 12 C 9.75 12.414062 9.414062 12.75 9 12.75 C 8.585938 12.75 8.25 12.414062 8.25 12 L 8.25 6 C 8.25 3.929688 9.929688 2.25 12 2.25 C 14.070312 2.25 15.75 3.929688 15.75 6 L 15.75 12 C 15.75 12.414062 15.414062 12.75 15 12.75 Z M 15 12.75 "/>
</g>
</svg>
